# xmcd
#
# Track frame offsets:
#	150
#	23279
#	49961
#	74299
#	98721
#	121465
#	144847
#	166944
#
# Disc length: 2538 seconds
#
# Revision: 0
# Processed by: cddbd v1.5PL3 Copyright (c) Steve Scherf et al.
# Submitted via: dBpowerAMP V4.0
#
DISCID=5f09e808
DTITLE=TrafficJammies - ELEMIMI
DYEAR=2004
DGENRE=
TTITLE0=Electro Crash with DJ SATOSATO
TTITLE1=BREAKs mix
TTITLE2=MISSION GOD OD
TTITLE3=Duel lap
TTITLE4=SORAMIMI
TTITLE5=BLM GIRL
TTITLE6=GIGABYTE
TTITLE7=Electro Body Clash (nFix with DJ SATOSATO GITAISANKA)
EXTD=
EXTT0=
EXTT1=
EXTT2=
EXTT3=
EXTT4=
EXTT5=
EXTT6=
EXTT7=
PLAYORDER=
